<?xml version="1.0" encoding="utf-8"?>
<!-- Generator: Adobe Illustrator 16.0.0, SVG Export Plug-In . SVG Version: 6.00 Build 0)  -->
<!DOCTYPE svg PUBLIC "-//W3C//DTD SVG 1.1//EN" "http://www.w3.org/Graphics/SVG/1.1/DTD/svg11.dtd">
<svg version="1.1" xmlns="http://www.w3.org/2000/svg" xmlns:xlink="http://www.w3.org/1999/xlink" x="0px" y="0px" width="360px"
	 height="360px" viewBox="0 0 360 360" enable-background="new 0 0 360 360" xml:space="preserve">
<g id="Layer_2">
	<ellipse fill="#1CBEF0" cx="180" cy="180" rx="161.285" ry="161.584"/>
</g>
<g id="Layer_1">
	<g>
		<path fill="#FFFFFF" d="M145.952,254.583c69.264,0,107.141-57.384,107.141-107.142c0-1.63-0.033-3.253-0.107-4.868
			c7.352-5.314,13.743-11.946,18.786-19.497c-6.748,2.997-14.009,5.017-21.626,5.928c7.774-4.661,13.743-12.038,16.558-20.83
			c-7.276,4.313-15.332,7.451-23.909,9.14c-6.872-7.319-16.658-11.897-27.487-11.897c-20.797,0-37.662,16.864-37.662,37.654
			c0,2.956,0.331,5.828,0.977,8.586c-31.295-1.574-59.047-16.559-77.617-39.343c-3.237,5.563-5.1,12.03-5.1,18.926
			c0,13.065,6.648,24.598,16.757,31.345c-6.176-0.19-11.98-1.887-17.055-4.711c-0.008,0.157-0.008,0.315-0.008,0.48
			c0,18.24,12.981,33.465,30.21,36.918c-3.162,0.86-6.491,1.324-9.927,1.324c-2.426,0-4.785-0.24-7.079-0.679
			c4.794,14.96,18.695,25.848,35.179,26.154c-12.891,10.1-29.126,16.118-46.769,16.118c-3.039,0-6.036-0.173-8.983-0.521
			C104.896,248.349,124.683,254.583,145.952,254.583"/>
	</g>
</g>
</svg>
