<?xml version="1.0" encoding="utf-8"?>
<!-- Generator: Adobe Illustrator 16.0.0, SVG Export Plug-In . SVG Version: 6.00 Build 0)  -->
<!DOCTYPE svg PUBLIC "-//W3C//DTD SVG 1.1//EN" "http://www.w3.org/Graphics/SVG/1.1/DTD/svg11.dtd">
<svg version="1.1" xmlns="http://www.w3.org/2000/svg" xmlns:xlink="http://www.w3.org/1999/xlink" x="0px" y="0px" width="360px"
	 height="360px" viewBox="0 0 360 360" enable-background="new 0 0 360 360" xml:space="preserve">
<g id="Layer_2">
	<ellipse fill="#1CBEF0" cx="180" cy="180" rx="161.285" ry="161.584"/>
</g>
<g id="Layer_1">
	<g>
		<g>
			<polyline fill="#1499C1" points="206.83,181.398 159.27,149.64 213.503,177.935 206.83,181.398 			"/>
			<path fill="#FFFFFF" d="M159.279,206.034l-0.009-56.395l54.233,28.295L159.279,206.034L159.279,206.034z M278.351,139.87
				c0,0-1.961-13.831-7.979-19.921c-7.633-7.994-16.188-8.034-20.111-8.502c-28.086-2.03-70.217-2.03-70.217-2.03h-0.087
				c0,0-42.13,0-70.217,2.03c-3.924,0.468-12.476,0.508-20.11,8.502c-6.018,6.09-7.976,19.921-7.976,19.921
				s-2.007,16.243-2.007,32.484v15.228c0,16.241,2.007,32.483,2.007,32.483s1.958,13.831,7.976,19.922
				c7.635,7.994,17.664,7.741,22.131,8.579c16.057,1.54,68.241,2.017,68.241,2.017s42.174-0.063,70.26-2.094
				c3.924-0.468,12.479-0.508,20.111-8.502c6.018-6.091,7.979-19.922,7.979-19.922s2.005-16.242,2.005-32.483v-15.228
				C280.355,156.113,278.351,139.87,278.351,139.87L278.351,139.87z"/>
		</g>
	</g>
</g>
</svg>
