<?xml version="1.0" encoding="utf-8"?>
<!-- Generator: Adobe Illustrator 21.0.0, SVG Export Plug-In . SVG Version: 6.00 Build 0)  -->
<svg version="1.1" id="Layer_1" xmlns="http://www.w3.org/2000/svg" xmlns:xlink="http://www.w3.org/1999/xlink" x="0px" y="0px"
	 viewBox="0 0 322.6 323.2" style="enable-background:new 0 0 322.6 323.2;" xml:space="preserve">
<style type="text/css">
	.st0{fill:#00AEED;}
	.st1{fill:#FFFFFF;}
</style>
<g id="Layer_2">
	<ellipse class="st0" cx="161.3" cy="161.6" rx="161.3" ry="161.6"/>
</g>
<path id="White_2_" class="st1" d="M238.8,74.5h-155c-5.3,0-9.6,4.3-9.6,9.6V239c0,5.3,4.3,9.6,9.6,9.6h83.4v-67.4h-22.7v-26.3h22.7
	v-19.3c0-22.5,13.7-34.7,33.8-34.7c9.6,0,17.9,0.7,20.3,1v23.5h-13.9c-10.9,0-13,5.2-13,12.8V155h26l-3.4,26.3h-22.6v67.4h44.4
	c5.3,0,9.6-4.3,9.6-9.6v-155C248.4,78.8,244.1,74.5,238.8,74.5z"/>
</svg>
