<?xml version="1.0" encoding="utf-8"?>
<!-- Generator: Adobe Illustrator 21.0.0, SVG Export Plug-In . SVG Version: 6.00 Build 0)  -->
<svg version="1.1" id="Layer_1" xmlns="http://www.w3.org/2000/svg" xmlns:xlink="http://www.w3.org/1999/xlink" x="0px" y="0px"
	 viewBox="0 0 322.6 323.2" style="enable-background:new 0 0 322.6 323.2;" xml:space="preserve">
<style type="text/css">
	.st0{fill:#00AEED;}
	.st1{fill:#1499C1;}
	.st2{fill:#FFFFFF;}
</style>
<g id="Layer_2">
	<ellipse class="st0" cx="161.3" cy="161.6" rx="161.3" ry="161.6"/>
</g>
<g id="Layer_1_1_">
	<g>
		<g>
			<polyline class="st1" points="188.1,163 140.6,131.2 194.8,159.5 188.1,163 			"/>
			<path class="st2" d="M140.6,187.6v-56.4l54.2,28.3L140.6,187.6L140.6,187.6z M259.7,121.5c0,0-2-13.8-8-19.9
				c-7.6-8-16.2-8-20.1-8.5c-28.1-2-70.2-2-70.2-2h-0.1c0,0-42.1,0-70.2,2c-3.9,0.5-12.5,0.5-20.1,8.5c-6,6.1-8,19.9-8,19.9
				s-2,16.2-2,32.5v15.2c0,16.2,2,32.5,2,32.5s2,13.8,8,19.9c7.6,8,17.7,7.7,22.1,8.6c16.1,1.5,68.2,2,68.2,2s42.2-0.1,70.3-2.1
				c3.9-0.5,12.5-0.5,20.1-8.5c6-6.1,8-19.9,8-19.9s2-16.2,2-32.5V154C261.7,137.7,259.7,121.5,259.7,121.5L259.7,121.5z"/>
		</g>
	</g>
</g>
</svg>
